<svg width="185" height="123" viewBox="0 0 185 123" fill="none" xmlns="http://www.w3.org/2000/svg">
<path fill-rule="evenodd" clip-rule="evenodd" d="M92.2075 1.09375C78.9414 1.09375 68.145 12.1056 68.145 25.7031C68.145 29.7423 70.1968 34.6587 73.197 39.515C79.7606 50.143 90.6937 60.6408 90.6937 60.6408C91.5392 61.4534 92.8758 61.4534 93.7212 60.6408C93.7212 60.6408 104.654 50.143 111.218 39.515C114.218 34.6587 116.27 29.7423 116.27 25.7031C116.27 12.1056 105.474 1.09375 92.2075 1.09375ZM92.2075 16.4062C97.0364 16.4062 100.957 20.3273 100.957 25.1562C100.957 29.9852 97.0364 33.9062 92.2075 33.9062C87.3786 33.9062 83.4575 29.9852 83.4575 25.1562C83.4575 22.7423 84.4375 20.5548 86.0223 18.9711C87.6061 17.3862 89.7936 16.4062 92.2075 16.4062Z" fill="#FF5733"/>
<path fill-rule="evenodd" clip-rule="evenodd" d="M121.565 59.1281C121.472 59.2288 120.192 60.1246 119.465 60.4611C114.357 62.8238 104.058 64.5312 92.2073 64.5312C80.357 64.5312 70.0575 62.8238 64.9497 60.4611C64.2224 60.1246 63.6164 59.7822 63.1576 59.422C63.0556 59.3414 62.9424 59.2288 62.8495 59.1281C63.1089 58.9362 63.5541 58.6269 63.9676 58.4385C66.3227 57.3626 70.2592 56.5439 75.1903 55.8199C76.3854 55.6445 77.2135 54.5331 77.0379 53.3387C76.8623 52.1444 75.751 51.3161 74.5559 51.4915C68.0819 52.4406 63.1655 53.6752 60.7844 55.1907C59.0296 56.3069 58.3013 57.6896 58.3013 59.0618C58.3013 60.0002 58.6388 60.9623 59.4171 61.8771C60.1579 62.748 61.3961 63.6378 63.1134 64.4317C68.5679 66.9555 79.5493 68.9058 92.2073 68.9058C104.865 68.9058 115.847 66.9555 121.301 64.4317C123.019 63.6378 124.257 62.748 124.998 61.8771C125.776 60.9623 126.113 60.0002 126.113 59.0618C126.113 57.6956 125.393 56.3223 123.657 55.2097C121.309 53.7049 116.461 52.4749 110.063 51.5211C108.869 51.3434 107.754 52.168 107.576 53.3624C107.398 54.5568 108.223 55.6706 109.417 55.8483C114.282 56.5735 118.161 57.3875 120.479 58.4563C120.879 58.6399 121.31 58.9397 121.565 59.1281Z" fill="#FF5733"/>
<path d="M33.9887 114V88.6348H36.3793V111.838H49.0708V114H33.9887ZM58.6157 114.334C56.9633 114.322 55.5102 113.936 54.2563 113.174C53.0024 112.4 52.0239 111.305 51.3208 109.887C50.6293 108.469 50.2836 106.793 50.2836 104.859V104.824C50.2836 102.891 50.6293 101.221 51.3208 99.8145C52.0239 98.3965 53.0024 97.3066 54.2563 96.5449C55.5102 95.7715 56.9575 95.3848 58.5981 95.3848C60.2622 95.3848 61.7153 95.7715 62.9575 96.5449C64.2114 97.3066 65.1899 98.3906 65.893 99.7969C66.5961 101.203 66.9477 102.879 66.9477 104.824V104.859C66.9477 106.805 66.5961 108.486 65.893 109.904C65.1899 111.311 64.2172 112.4 62.9751 113.174C61.7329 113.947 60.2797 114.334 58.6157 114.334ZM58.6333 112.26C59.8286 112.26 60.8715 111.967 61.7622 111.381C62.6528 110.795 63.3442 109.945 63.8364 108.832C64.3286 107.719 64.5747 106.395 64.5747 104.859V104.824C64.5747 103.277 64.3286 101.953 63.8364 100.852C63.3442 99.75 62.6469 98.9121 61.7446 98.3379C60.854 97.752 59.8051 97.459 58.5981 97.459C57.4145 97.459 56.3774 97.752 55.4868 98.3379C54.5961 98.9238 53.8989 99.7676 53.395 100.869C52.9028 101.971 52.6567 103.289 52.6567 104.824V104.859C52.6567 106.395 52.9028 107.719 53.395 108.832C53.8989 109.945 54.5961 110.795 55.4868 111.381C56.3774 111.967 57.4262 112.26 58.6333 112.26ZM77.4418 114.334C75.7543 114.334 74.2836 113.947 73.0297 113.174C71.7876 112.389 70.8266 111.287 70.1469 109.869C69.4672 108.451 69.1274 106.775 69.1274 104.842V104.824C69.1274 102.902 69.4672 101.238 70.1469 99.832C70.8383 98.4141 71.8051 97.3184 73.0473 96.5449C74.3012 95.7715 75.7543 95.3848 77.4067 95.3848C78.8364 95.3848 80.0786 95.6602 81.1333 96.2109C82.1997 96.7617 83.0493 97.4824 83.6821 98.373C84.3266 99.2637 84.7309 100.236 84.895 101.291L84.9126 101.449H82.645L82.6098 101.291C82.352 100.225 81.7778 99.3223 80.8872 98.584C80.0083 97.834 78.8481 97.459 77.4067 97.459C76.2231 97.459 75.186 97.7637 74.2954 98.373C73.4165 98.9707 72.7309 99.8262 72.2387 100.939C71.7465 102.041 71.5004 103.348 71.5004 104.859V104.877C71.5004 106.412 71.7465 107.73 72.2387 108.832C72.7309 109.934 73.4223 110.783 74.3129 111.381C75.2153 111.967 76.2583 112.26 77.4418 112.26C78.8129 112.26 79.9438 111.908 80.8344 111.205C81.7368 110.49 82.3286 109.564 82.6098 108.428L82.645 108.27H84.9301L84.895 108.41C84.7192 109.547 84.2915 110.561 83.6118 111.451C82.9438 112.342 82.0825 113.045 81.0278 113.561C79.9731 114.076 78.7778 114.334 77.4418 114.334ZM93.2446 114.334C92.0493 114.334 90.9946 114.111 90.0805 113.666C89.1665 113.209 88.4516 112.576 87.936 111.768C87.4321 110.947 87.1801 110.004 87.1801 108.938V108.902C87.1801 107.859 87.4321 106.963 87.936 106.213C88.4516 105.463 89.1958 104.871 90.1684 104.438C91.1528 103.992 92.3422 103.729 93.7368 103.646L100.592 103.207V105.018L94.018 105.457C92.5883 105.562 91.4809 105.914 90.6958 106.512C89.9223 107.098 89.5356 107.895 89.5356 108.902V108.938C89.5356 109.945 89.9223 110.76 90.6958 111.381C91.4692 111.99 92.4711 112.295 93.7016 112.295C94.7797 112.295 95.7465 112.072 96.602 111.627C97.4692 111.17 98.1547 110.549 98.6586 109.764C99.1743 108.979 99.4321 108.1 99.4321 107.127V101.695C99.4321 100.371 99.0336 99.334 98.2368 98.584C97.4516 97.834 96.3442 97.459 94.9145 97.459C93.5903 97.459 92.5063 97.7578 91.6626 98.3555C90.8305 98.9531 90.3149 99.7734 90.1157 100.816L90.0805 100.992H87.8481L87.8657 100.781C87.9829 99.7266 88.3403 98.7949 88.9379 97.9863C89.5356 97.1777 90.3442 96.5449 91.3637 96.0879C92.3833 95.6191 93.5786 95.3848 94.9497 95.3848C96.3442 95.3848 97.5454 95.6367 98.5532 96.1406C99.5727 96.6328 100.358 97.3359 100.909 98.25C101.471 99.1641 101.752 100.242 101.752 101.484V114H99.4321V110.643H99.3793C99.0512 111.381 98.5766 112.025 97.9555 112.576C97.3344 113.127 96.6196 113.561 95.811 113.877C95.0024 114.182 94.1469 114.334 93.2446 114.334ZM108.221 114V90.7969H99.8364V88.6348H118.997V90.7969H110.612V114H108.221ZM117.854 114V95.7188H120.174V99.0059H120.227C120.555 97.8809 121.106 96.9961 121.879 96.3516C122.665 95.707 123.614 95.3848 124.727 95.3848C125.032 95.3848 125.313 95.4082 125.571 95.4551C125.829 95.502 126.028 95.5488 126.168 95.5957V97.8633C126.016 97.793 125.788 97.7344 125.483 97.6875C125.178 97.6289 124.821 97.5996 124.411 97.5996C123.555 97.5996 122.805 97.8105 122.161 98.2324C121.528 98.6426 121.036 99.2285 120.684 99.9902C120.344 100.752 120.174 101.648 120.174 102.68V114H117.854ZM128.858 114V95.7188H131.178V114H128.858ZM130.018 92.4141C129.596 92.4141 129.233 92.2676 128.928 91.9746C128.635 91.6699 128.489 91.3008 128.489 90.8672C128.489 90.4453 128.635 90.0879 128.928 89.7949C129.233 89.4902 129.596 89.3379 130.018 89.3379C130.452 89.3379 130.815 89.4902 131.108 89.7949C131.413 90.0879 131.565 90.4453 131.565 90.8672C131.565 91.3008 131.413 91.6699 131.108 91.9746C130.815 92.2676 130.452 92.4141 130.018 92.4141ZM135.362 120.152V95.7188H137.682V99.6035H137.735C138.075 98.7715 138.543 98.0391 139.141 97.4062C139.739 96.7734 140.448 96.2812 141.268 95.9297C142.088 95.5664 142.985 95.3848 143.957 95.3848C145.504 95.3848 146.858 95.7773 148.018 96.5625C149.178 97.3477 150.081 98.4492 150.725 99.8672C151.381 101.285 151.709 102.949 151.709 104.859V104.877C151.709 106.787 151.381 108.451 150.725 109.869C150.081 111.275 149.178 112.371 148.018 113.156C146.87 113.941 145.528 114.334 143.993 114.334C143.02 114.334 142.118 114.158 141.286 113.807C140.465 113.455 139.75 112.969 139.141 112.348C138.543 111.715 138.075 110.988 137.735 110.168H137.682V120.152H135.362ZM143.553 112.26C144.725 112.26 145.745 111.955 146.612 111.346C147.479 110.736 148.153 109.881 148.633 108.779C149.114 107.666 149.354 106.365 149.354 104.877V104.859C149.354 103.348 149.114 102.041 148.633 100.939C148.153 99.8262 147.479 98.9707 146.612 98.373C145.745 97.7637 144.725 97.459 143.553 97.459C142.405 97.459 141.385 97.7695 140.495 98.3906C139.616 99 138.924 99.8613 138.42 100.975C137.916 102.076 137.665 103.371 137.665 104.859V104.877C137.665 106.342 137.916 107.631 138.42 108.744C138.924 109.857 139.616 110.725 140.495 111.346C141.385 111.955 142.405 112.26 143.553 112.26Z" fill="#591E12"/>
</svg>
